<svg xmlns="http://www.w3.org/2000/svg" viewBox="0 0 96 96" width="96" height="96" role="img" aria-label="Kiki, chief-of-staff AI agent avatar">
  <defs>
    <radialGradient id="kkbg" cx="50%" cy="36%" r="72%">
      <stop offset="0%" stop-color="#c4b5fd" stop-opacity="0.38"/>
      <stop offset="100%" stop-color="#0a0b10" stop-opacity="0"/>
    </radialGradient>
    <linearGradient id="kkhead" x1="0" y1="0" x2="0" y2="1">
      <stop offset="0%" stop-color="#222c41"/>
      <stop offset="100%" stop-color="#161d2c"/>
    </linearGradient>
  </defs>
  <circle cx="48" cy="48" r="47" fill="#0d1118" stroke="#8b5cf6" stroke-opacity="0.55" stroke-width="2"/>
  <circle cx="48" cy="48" r="46" fill="url(#kkbg)"/>
  <line x1="48" y1="24" x2="48" y2="15" stroke="#8b5cf6" stroke-width="3" stroke-linecap="round"/>
  <circle cx="48" cy="11" r="4" fill="#c4b5fd"/>
  <rect x="24" y="26" width="48" height="44" rx="14" fill="url(#kkhead)" stroke="#8b5cf6" stroke-opacity="0.6" stroke-width="2"/>
  <rect x="18" y="38" width="8" height="20" rx="4" fill="#8b5cf6"/>
  <rect x="70" y="38" width="8" height="20" rx="4" fill="#8b5cf6"/>
  <path d="M22 40 Q48 20 74 40" stroke="#8b5cf6" stroke-width="3" fill="none" stroke-linecap="round"/>
  <path d="M22 50 Q17 64 37 62" stroke="#8b5cf6" stroke-width="2" fill="none"/>
  <circle cx="37" cy="62" r="2.5" fill="#c4b5fd"/>
  <circle cx="39" cy="46" r="4" fill="#c4b5fd"/>
  <circle cx="57" cy="46" r="4" fill="#c4b5fd"/>
  <path d="M40 55 Q48 61 56 55" stroke="#c4b5fd" stroke-width="3" fill="none" stroke-linecap="round"/>
</svg>
