<svg xmlns="http://www.w3.org/2000/svg" viewBox="0 0 96 96" width="96" height="96" role="img" aria-label="Mira, career-progression AI agent avatar">
  <defs>
    <radialGradient id="mrbg" cx="50%" cy="36%" r="72%">
      <stop offset="0%" stop-color="#f9a8d4" stop-opacity="0.38"/>
      <stop offset="100%" stop-color="#0a0b10" stop-opacity="0"/>
    </radialGradient>
    <linearGradient id="mrhead" x1="0" y1="0" x2="0" y2="1">
      <stop offset="0%" stop-color="#222c41"/>
      <stop offset="100%" stop-color="#161d2c"/>
    </linearGradient>
  </defs>
  <circle cx="48" cy="48" r="47" fill="#0d1118" stroke="#ec4899" stroke-opacity="0.55" stroke-width="2"/>
  <circle cx="48" cy="48" r="46" fill="url(#mrbg)"/>
  <line x1="48" y1="24" x2="48" y2="15" stroke="#ec4899" stroke-width="3" stroke-linecap="round"/>
  <circle cx="48" cy="11" r="4" fill="#f9a8d4"/>
  <rect x="24" y="26" width="48" height="44" rx="14" fill="url(#mrhead)" stroke="#ec4899" stroke-opacity="0.6" stroke-width="2"/>
  <rect x="19" y="40" width="6" height="16" rx="3" fill="#ec4899" fill-opacity="0.85"/>
  <rect x="71" y="40" width="6" height="16" rx="3" fill="#ec4899" fill-opacity="0.85"/>
  <path d="M33 38 h30 a3 3 0 0 1 3 3 v19 a3 3 0 0 1 -3 3 h-30 a3 3 0 0 1 -3 -3 v-19 a3 3 0 0 1 3 -3 z" fill="none" stroke="#f9a8d4" stroke-width="2"/>
  <path d="M37 44 h22 M37 50 h16 M37 56 h20" stroke="#f9a8d4" stroke-width="2" stroke-linecap="round"/>
  <circle cx="39" cy="68" r="2.5" fill="#f9a8d4"/>
  <circle cx="48" cy="68" r="2.5" fill="#f9a8d4"/>
  <circle cx="57" cy="68" r="2.5" fill="#f9a8d4"/>
</svg>
