<svg xmlns="http://www.w3.org/2000/svg" viewBox="0 0 96 96" width="96" height="96" role="img" aria-label="Toby, portfolio-site AI agent avatar">
  <defs>
    <radialGradient id="tbbg" cx="50%" cy="36%" r="72%">
      <stop offset="0%" stop-color="#93c5fd" stop-opacity="0.4"/>
      <stop offset="100%" stop-color="#0a0b10" stop-opacity="0"/>
    </radialGradient>
    <linearGradient id="tbhead" x1="0" y1="0" x2="0" y2="1">
      <stop offset="0%" stop-color="#222c41"/>
      <stop offset="100%" stop-color="#161d2c"/>
    </linearGradient>
  </defs>
  <circle cx="48" cy="48" r="47" fill="#0d1118" stroke="#3b82f6" stroke-opacity="0.55" stroke-width="2"/>
  <circle cx="48" cy="48" r="46" fill="url(#tbbg)"/>
  <line x1="48" y1="24" x2="48" y2="15" stroke="#3b82f6" stroke-width="3" stroke-linecap="round"/>
  <circle cx="48" cy="11" r="4" fill="#93c5fd"/>
  <rect x="24" y="26" width="48" height="44" rx="14" fill="url(#tbhead)" stroke="#3b82f6" stroke-opacity="0.6" stroke-width="2"/>
  <rect x="19" y="40" width="6" height="16" rx="3" fill="#3b82f6" fill-opacity="0.85"/>
  <rect x="71" y="40" width="6" height="16" rx="3" fill="#3b82f6" fill-opacity="0.85"/>
  <circle cx="39" cy="46" r="4.6" fill="#93c5fd"/>
  <circle cx="57" cy="46" r="4.6" fill="#93c5fd"/>
  <circle cx="40.6" cy="44.4" r="1.5" fill="#ffffff"/>
  <circle cx="58.6" cy="44.4" r="1.5" fill="#ffffff"/>
  <path d="M39 55 Q48 64 57 55" stroke="#93c5fd" stroke-width="3" fill="none" stroke-linecap="round"/>
  <path d="M62 30 l1.1 3 3 1.1 -3 1.1 -1.1 3 -1.1 -3 -3 -1.1 3 -1.1 z" fill="#93c5fd"/>
</svg>
